<svg xmlns="http://www.w3.org/2000/svg" width="32" height="32" viewBox="0 0 32 32"><rect width="32" height="32" fill="none"/><path d="M9 6h5v2h2v2h-2v-2h-5v-2zm-2 2h2v4H7v-4zm5 6h2v2h2v2h-2v-2h-2v-2zm-7 2h2v4H5v-4zm9-6h5v2h2v2h-2v-2h-5v-2zm5 4h2v4h-2v-4zm-7 2h2v2h2v2h-2v-2h-2v-2zm2 4h1v2h2v2h-2v-2h-1v-2zm-7 2h5v2h2v2h-2v-2h-5v-2zm5 4h2v2h2v2h-2v-2h-2v-2zm-9 2h2v2H3v-2zm14 0h2v2h-2v-2zm-7 2h5v2H9v-2zm2 2h1v2h-1v-2zm-4 2h2v2h-2v-2zm2 2h1v2h2v2h-2v-2h-1v-2zm-5-6h2v2H7v-2zm1 2h1v2H8v-2zm-3 2h2v2H5v-2zm3 2h2v2H8v-2z" fill="#3a3"/><path d="M8 8h4v3H8V8zm6-2h4v3h-4V6zm-6 6h1v2H8v-2zm7-4h1v2h-1V8z" fill="#0f0"/></svg>