<svg viewBox="0 0 32 32" xmlns="http://www.w3.org/2000/svg" shape-rendering="crispEdges">
  <!-- Body (Yellow Sponge Part) -->
  <rect x="8" y="4" width="16" height="10" fill="#FFEB3B"/> 
  <!-- Spongy holes -->
  <rect x="10" y="6" width="1" height="1" fill="#FFF176"/>
  <rect x="18" y="5" width="1" height="1" fill="#FFF176"/>
  <rect x="14" y="8" width="1" height="1" fill="#FFF176"/>
  <rect x="22" y="9" width="1" height="1" fill="#FFF176"/>
  <!-- Shirt (White) -->
  <rect x="8" y="14" width="16" height="3" fill="#FFFFFF"/>
  <!-- Tie (Red) -->
  <rect x="15" y="14" width="2" height="3" fill="#D32F2F"/>
  <!-- Pants (Brown) -->
  <rect x="8" y="17" width="16" height="7" fill="#795548"/>
  
  <!-- Facial Features -->
  <!-- Eyes (White) -->
  <rect x="10" y="7" width="4" height="4" fill="#FFFFFF"/>
  <rect x="18" y="7" width="4" height="4" fill="#FFFFFF"/>
  <!-- Pupils (Blue) -->
  <rect x="12" y="9" width="1" height="1" fill="#2196F3"/>
  <rect x="20" y="9" width="1" height="1" fill="#2196F3"/>
  
  <!-- Smile (Black line) -->
  <rect x="13" y="12" width="6" height="1" fill="#000000"/>
  
  <!-- Shoes/Feet (Black) -->
  <rect x="10" y="24" width="4" height="3" fill="#000000"/>
  <rect x="18" y="24" width="4" height="3" fill="#000000"/>
  
  <!-- Outline -->
  <path d="M 8 4 h 16 v 20 h -16 z" fill="none" stroke="#000000" stroke-width="1"/>
  <path d="M 8 14 h 16" stroke="#000000" stroke-width="1"/> 
  <path d="M 8 17 h 16" stroke="#000000" stroke-width="1"/> 
</svg>