<svg width="32" height="32" viewBox="0 0 32 32" xmlns="http://www.w3.org/2000/svg"><rect x="12" y="6" width="8" height="8" fill="#FFCC99"/><rect x="13" y="8" width="2" height="2" fill="#000000"/><rect x="17" y="8" width="2" height="2" fill="#000000"/><rect x="14" y="11" width="4" height="2" fill="#000000"/><rect x="12" y="14" width="8" height="8" fill="#0000FF"/><rect x="10" y="14" width="2" height="6" fill="#FFCC99"/><rect x="20" y="14" width="2" height="6" fill="#FFCC99"/><rect x="12" y="22" width="3" height="4" fill="#663300"/><rect x="17" y="22" width="3" height="4" fill="#663300"/><path d="M12 6H20V14H12Z M13 8H15V10H13Z M17 8H19V10H17Z M14 11H18V13H14Z M12 14H20V22H12Z M10 14H12V20H10Z M20 14H22V20H20Z M12 22H15V26H12Z M17 22H20V26H17Z" fill="none" stroke="#000000" stroke-width="1"/></svg>