<svg xmlns="http://www.w3.org/2000/svg" width="32" height="32" viewBox="0 0 32 32" shape-rendering="crispEdges"><rect width="32" height="32" fill="none"/><path fill="#000000" d="M8 4h16v1h-1v1h1v14h-1v1h1v4h-3v-1h-1v1h-6v-1h-1v1h-3v-4h1v-1h-1v-14h1v-1h-1v-1h16zm-1 2v1h1v1h-1v1h1v2h-1v1h1v1h-1v1h1v2h-1v1h1v1h-1v1h1v1h-1v1h1v1h-1v-1h1v-1h-1v-1h1v-1h-1v-1h1v-1h-1v-2h1v-1h-1v-1h1v-1h-1v-2h1v-1h-1v-1h1v-1h-1zm2-1v1h1v1h1v-1h-1v-1h-1zm12 0v1h1v1h1v-1h-1v-1h-1zM10 26h5v3h-5zm6 0h5v3h-5z"/><path fill="#FFFF00" d="M9 5h14v16h-14zM7 7h1v1h-1zM7 9h1v1h-1zM7 12h1v1h-1zM7 15h1v1h-1zM7 18h1v1h-1zM24 7h1v1h-1zM24 9h1v1h-1zM24 12h1v1h-1zM24 15h1v1h-1zM24 18h1v1h-1z"/><path fill="#D4AF37" d="M11 7h2v2h-2zm8 3h2v2h-2zm-6 5h2v2h-2zm6 3h2v2h-2zM12 17h2v2h-2z"/><path fill="#FFFFFF" d="M9 20h14v1h-14zM10 27h3v2h-3zm6 0h3v2h-3z"/><path fill="#FF0000" d="M10 28h3v1h-3zm6 0h3v1h-3z"/><path fill="#A52A2A" d="M9 21h14v4h-14z"/><path fill="#000000" d="M9 21h1v1h-1zm2 0h2v1h-2zm3 0h4v1h-4zm5 0h2v1h-2zm-10 3h3v1h-3zm6 0h3v1h-3z"/></svg>