<svg xmlns="http://www.w3.org/2000/svg" width="32" height="32" viewBox="0 0 32 32" shape-rendering="crispEdges"><rect width="32" height="32" fill="none"/><path fill="#000000" d="M8 4h16v1h-1v1h1v14h-1v1h1v4h-3v-1h-1v1h-6v-1h-1v1h-3v-4h1v-1h-1v-14h1v-1h-1v-1h16zm-1 2v1h1v1h-1v1h1v2h-1v1h1v1h-1v1h1v2h-1v1h1v1h-1v1h1v1h-1v1h1v1h-1v1h1v1h-1v-1h1v-1h-1v-1h1v-1h-1v-1h1v-1h-1v-2h1v-1h-1v-1h1v-1h-1v-2h1v-1h-1v-1h1v-1h-1zm2-1v1h1v1h1v-1h-1v-1h-1zm12 0v1h1v1h1v-1h-1v-1h-1zm-10 3v4h4v-4h-4zm6 0v4h4v-4h-4zm-6 5v1h1v-1h-1zm6 0v1h1v-1h-1z"/><path fill="#FFFF00" d="M9 5h14v16h-14zM7 7h1v1h-1zM7 9h1v1h-1zM7 12h1v1h-1zM7 15h1v1h-1zM7 18h1v1h-1zM24 7h1v1h-1zM24 9h1v1h-1zM24 12h1v1h-1zM24 15h1v1h-1zM24 18h1v1h-1z"/><path fill="#FFFFFF" d="M11 7h4v4h-4zm6 0h4v4h-4zM13 17h2v2h-2zM17 17h2v2h-2zM9 20h14v1h-14zM10 27h3v2h-3zm6 0h3v2h-3z"/><path fill="#0000FF" d="M13 8h1v2h-1zm6 0h1v2h-1z"/><path fill="#FF0000" d="M15 20h2v3h-2zM10 28h3v1h-3zm6 0h3v1h-3z"/><path fill="#A52A2A" d="M9 21h14v4h-14z"/><path fill="#000000" d="M9 21h1v1h-1zm2 0h2v1h-2zm3 0h4v1h-4zm5 0h2v1h-2zm-10 3h3v1h-3zm6 0h3v1h-3zM13 17h6v1h-6zm2 2h2v1h-2zm-5 2h10v1h-10zm-3 7h5v3h-5zm6 0h5v3h-5z"/></svg>