<svg xmlns="http://www.w3.org/2000/svg" width="32" height="32" viewBox="0 0 32 32" shape-rendering="crispEdges"><rect width="32" height="32" fill="none"/><path fill="#000000" d="M12 4h8v1h-1v1h1v14h-1v1h1v4h-3v-1h-2v1h-3v-4h1v-1h-1v-14h1v-1h-1v-1h8zm-1 2v1h1v1h-1v1h1v2h-1v1h1v1h-1v1h1v2h-1v1h1v1h-1v1h1v1h-1v-1h1v-1h-1v-1h1v-1h-1v-1h1v-1h-1v-2h1v-1h-1v-1h1v-1h-1v-2h1v-1h-1v-1h1v-1h-1zm2-1v1h1v1h1v-1h-1v-1h-1zm6 0v1h1v1h1v-1h-1v-1h-1zm-6 3v4h4v-4h-4zm0 7v1h6v1h-6zm0 2h2v2h-2zm-3 7h5v3h-5zM10 15h1v4h-1zM21 15h1v4h-1z"/><path fill="#FFFF00" d="M13 5h6v16h-6zM11 7h1v1h-1zM11 9h1v1h-1zM11 12h1v1h-1zM11 15h1v1h-1zM11 18h1v1h-1zM20 7h1v1h-1zM20 9h1v1h-1zM20 12h1v1h-1zM20 15h1v1h-1zM20 18h1v1h-1zM10 16h1v2h-1zM21 16h1v2h-1z"/><path fill="#FFFFFF" d="M13 7h4v4h-4zm0 12h2v2h-2zM13 20h6v1h-6zM12 27h3v2h-3z"/><path fill="#0000FF" d="M15 8h1v2h-1z"/><path fill="#FF0000" d="M12 28h3v1h-3z"/><path fill="#A52A2A" d="M13 21h6v4h-6z"/><path fill="#000000" d="M13 21h1v1h-1zm2 0h2v1h-2zm3 0h1v1h-1zm-5 3h3v1h-3z"/></svg>