<svg viewBox="0 0 32 32" xmlns="http://www.w3.org/2000/svg" shape-rendering="crispEdges">
  <rect x="14" y="24" width="4" height="8" fill="#FFFFFF"/>
  <rect x="13" y="22" width="6" height="2" fill="#DC143C"/>
  <rect x="11" y="14" width="10" height="8" fill="#DC143C"/>
  <rect x="10" y="16" width="12" height="6" fill="#DC143C"/>
  <rect x="11" y="14" width="1" height="8" fill="#FFD700"/>
  <rect x="20" y="14" width="1" height="8" fill="#FFD700"/>
  <rect x="9" y="16" width="2" height="4" fill="#8B4513"/>
  <rect x="21" y="16" width="2" height="4" fill="#8B4513"/>
  <rect x="11" y="6" width="10" height="10" fill="#8B4513"/>
  <rect x="10" y="8" width="12" height="8" fill="#8B4513"/>
  <rect x="12" y="6" width="8" height="2" fill="#000000"/>
  <rect x="11" y="8" width="10" height="1" fill="#000000"/>
  <rect x="14" y="16" width="4" height="1" fill="#8B4513"/>
  <rect x="14" y="17" width="1" height="3" fill="#FFD700"/>
  <rect x="17" y="17" width="1" height="3" fill="#FFD700"/>
  <rect x="15" y="18" width="2" height="1" fill="#FFD700"/>
</svg>