<svg viewBox="0 0 32 32" xmlns="http://www.w3.org/2000/svg" shape-rendering="crispEdges">
  <rect x="0" y="0" width="32" height="32" fill="none"/>
  
  <!-- Hair outline and hair (Dark/Black) -->
  <rect x="11" y="4" width="10" height="1" fill="#333333"/> 
  <rect x="10" y="5" width="12" height="1" fill="#333333"/>
  <rect x="9" y="6" width="14" height="1" fill="#333333"/>
  
  <!-- Neck/Upper Back Skin -->
  <rect x="10" y="7" width="12" height="3" fill="#A0522D"/>
  <rect x="11" y="10" width="10" height="2" fill="#A0522D"/>

  <!-- Back of Jersey (Purple) -->
  <rect x="9" y="12" width="14" height="1" fill="#550088"/>
  <rect x="8" y="13" width="16" height="6" fill="#550088"/>
  
  <!-- Arms (Skin) -->
  <rect x="6" y="14" width="2" height="3" fill="#A0522D"/>
  <rect x="24" y="14" width="2" height="3" fill="#A0522D"/>
  
  <!-- Jersey Trim/Details (Gold/Yellow - on the bottom hem) -->
  <rect x="8" y="19" width="16" height="1" fill="#FFD700"/>
  
  <!-- Shorts (Dark Grey) -->
  <rect x="9" y="20" width="14" height="3" fill="#222222"/>
  
  <!-- Legs (Skin) -->
  <rect x="11" y="23" width="4" height="1" fill="#A0522D"/>
  <rect x="17" y="23" width="4" height="1" fill="#A0522D"/>
  <rect x="11" y="24" width="3" height="1" fill="#A0522D"/>
  <rect x="18" y="24" width="3" height="1" fill="#A0522D"/>

  <!-- Knees/Shorts separation -->
  <rect x="11" y="25" width="3" height="1" fill="#222222"/>
  <rect x="18" y="25" width="3" height="1" fill="#222222"/>
  
  <!-- Lower Legs/Socks -->
  <rect x="11" y="26" width="3" height="1" fill="#A0522D"/>
  <rect x="18" y="26" width="3" height="1" fill="#A0522D"/>
  
  <!-- Shoes (Black) -->
  <rect x="10" y="27" width="4" height="1" fill="#000000"/>
  <rect x="17" y="27" width="4" height="1" fill="#000000"/>
</svg>