<svg viewBox="0 0 32 32" xmlns="http://www.w3.org/2000/svg" shape-rendering="crispEdges">
  <rect x="0" y="0" width="32" height="32" fill="none"/>
  
  <!-- Hair/Head -->
  <rect x="12" y="5" width="5" height="1" fill="#333333"/> 
  <rect x="11" y="6" width="7" height="1" fill="#333333"/> 
  
  <!-- Headband (Black) -->
  <rect x="11" y="7" width="6" height="1" fill="#000000"/>
  
  <!-- Face/Skin -->
  <rect x="11" y="8" width="8" height="1" fill="#A0522D"/>
  <rect x="11" y="9" width="7" height="1" fill="#A0522D"/>
  <rect x="10" y="10" width="7" height="2" fill="#A0522D"/>
  
  <!-- Eye -->
  <rect x="15" y="9" width="1" height="1" fill="#000000"/>
  
  <!-- Neck/Shoulder -->
  <rect x="15" y="12" width="2" height="1" fill="#A0522D"/>
  
  <!-- Body (Purple) -->
  <rect x="10" y="13" width="8" height="6" fill="#550088"/>
  
  <!-- Arm (Skin) - Right side moving forward -->
  <rect x="18" y="15" width="3" height="1" fill="#A0522D"/>
  <rect x="18" y="16" width="2" height="1" fill="#A0522D"/>
  
  <!-- Jersey Trim (Gold) -->
  <rect x="10" y="19" width="8" height="1" fill="#FFD700"/>
  
  <!-- Shorts (Dark Grey) -->
  <rect x="11" y="20" width="7" height="3" fill="#222222"/>
  
  <!-- Legs (Skin) -->
  <!-- Front leg -->
  <rect x="14" y="23" width="3" height="1" fill="#A0522D"/>
  <rect x="15" y="24" width="2" height="2" fill="#A0522D"/>
  <rect x="14" y="26" width="2" height="1" fill="#A0522D"/>

  <!-- Back leg shadow/separation -->
  <rect x="13" y="23" width="1" height="3" fill="#222222"/>
  
  <!-- Shoe (Black) -->
  <rect x="13" y="27" width="4" height="1" fill="#000000"/>
</svg>