<svg xmlns="http://www.w3.org/2000/svg" width="32" height="32" viewBox="0 0 32 32"><rect width="32" height="32" fill="transparent"/><rect x="11" y="6" width="10" height="2" fill="#000"/><rect x="8" y="8" width="3" height="3" fill="#000"/><rect x="21" y="8" width="3" height="3" fill="#000"/><rect x="7" y="11" width="1" height="10" fill="#000"/><rect x="24" y="11" width="1" height="10" fill="#000"/><rect x="8" y="21" width="3" height="3" fill="#000"/><rect x="21" y="21" width="3" height="3" fill="#000"/><rect x="11" y="24" width="10" height="2" fill="#000"/><rect x="11" y="8" width="10" height="13" fill="#f4c4a0"/><rect x="13" y="13" width="2" height="2" fill="#000"/><rect x="17" y="13" width="2" height="2" fill="#000"/><rect x="13" y="18" width="6" height="2" fill="#000"/><rect x="12" y="17" width="1" height="1" fill="#000"/><rect x="19" y="17" width="1" height="1" fill="#000"/></svg>