<svg xmlns="http://www.w3.org/2000/svg" viewBox="0 0 32 32" shape-rendering="crispEdges">
    
    <!-- Head/Hair Outline -->
    <rect x="8" y="5" width="16" height="1" fill="#111111"/>
    <rect x="7" y="6" width="1" height="11" fill="#111111"/>
    <rect x="24" y="6" width="1" height="11" fill="#111111"/>
    <rect x="8" y="17" width="16" height="1" fill="#111111"/>
    
    <!-- Hair (Full Back) -->
    <rect x="8" y="6" width="16" height="11" fill="#100800"/>
    
    <!-- Neck/Shoulders -->
    <rect x="12" y="18" width="8" height="1" fill="#111111"/>
    
    <!-- Torso (Purple Jersey) -->
    <rect x="10" y="19" width="12" height="1" fill="#111111"/>
    <rect x="9" y="20" width="1" height="4" fill="#111111"/>
    <rect x="22" y="20" width="1" height="4" fill="#111111"/>
    <rect x="10" y="20" width="12" height="4" fill="#552583"/>
    
    <!-- Optional: Minimal uniform detailing (implied number block, Gold) -->
    <rect x="13" y="21" width="6" height="2" fill="#FDB927"/> 

    <!-- Arms (Skin tone visible at the edge) -->
    <rect x="7" y="21" width="2" height="3" fill="#8B5742"/> 
    <rect x="23" y="21" width="2" height="3" fill="#8B5742"/> 

    <!-- Shorts (Yellow) -->
    <rect x="11" y="24" width="10" height="1" fill="#111111"/>
    <rect x="11" y="25" width="10" height="3" fill="#FDB927"/>
    <rect x="10" y="25" width="1" height="3" fill="#111111"/>
    <rect x="21" y="25" width="1" height="3" fill="#111111"/>
    
    <!-- Legs/Shoes (Simple) -->
    <rect x="12" y="28" width="3" height="4" fill="#111111"/>
    <rect x="17" y="28" width="3" height="4" fill="#111111"/>
</svg>