<svg xmlns="http://www.w3.org/2000/svg" viewBox="0 0 32 32" shape-rendering="crispEdges">
    <!-- Head/Outline -->
    <rect x="8" y="5" width="16" height="1" fill="#111111"/>
    <rect x="7" y="6" width="1" height="11" fill="#111111"/>
    <rect x="24" y="6" width="1" height="11" fill="#111111"/>
    <rect x="8" y="17" width="16" height="1" fill="#111111"/>
    
    <!-- Hair/Headband -->
    <rect x="8" y="6" width="16" height="3" fill="#100800"/>
    <!-- Headband (White) -->
    <rect x="9" y="8" width="14" height="1" fill="#FFFFFF"/> 

    <!-- Face (Skin Tone) -->
    <rect x="8" y="9" width="16" height="8" fill="#8B5742"/>
    
    <!-- Facial Features (Cute style) -->
    <!-- Eyes -->
    <rect x="11" y="11" width="2" height="2" fill="#111111"/>
    <rect x="19" y="11" width="2" height="2" fill="#111111"/>
    <!-- Mouth/Beard Hint -->
    <rect x="15" y="14" width="2" height="1" fill="#111111"/> 
    <rect x="10" y="15" width="12" height="2" fill="#100800"/>

    <!-- Body Outline and Neck -->
    <rect x="12" y="18" width="8" height="1" fill="#111111"/>
    
    <!-- Torso (Purple Jersey) -->
    <rect x="10" y="19" width="12" height="1" fill="#111111"/>
    <rect x="9" y="20" width="1" height="4" fill="#111111"/>
    <rect x="22" y="20" width="1" height="4" fill="#111111"/>
    <rect x="10" y="20" width="12" height="4" fill="#552583"/>
    
    <!-- Arms and Basketball (Simplified) -->
    <!-- Left Arm holding the ball -->
    <rect x="7" y="21" width="2" height="3" fill="#8B5742"/> 
    <rect x="23" y="21" width="2" height="3" fill="#8B5742"/> 
    
    <!-- Basketball -->
    <rect x="13" y="23" width="6" height="6" fill="#C47B2C"/> 
    <rect x="12" y="24" width="8" height="4" fill="#C47B2C"/> 
    
    <!-- Shorts (Yellow) -->
    <rect x="11" y="24" width="10" height="1" fill="#111111"/>
    <rect x="11" y="25" width="10" height="3" fill="#FDB927"/>
    <rect x="10" y="25" width="1" height="3" fill="#111111"/>
    <rect x="21" y="25" width="1" height="3" fill="#111111"/>
    
    <!-- Legs/Shoes (Simple) -->
    <rect x="12" y="28" width="3" height="4" fill="#111111"/>
    <rect x="17" y="28" width="3" height="4" fill="#111111"/>
</svg>