<svg xmlns="http://www.w3.org/2000/svg" viewBox="0 0 32 32" shape-rendering="crispEdges"><path fill="#000000" d="M13 6h6v1h2v2h1v4h-1v1h1v2h-1v1h1v3h-1v1h-1v2h-3v-1h-2v1h-3v-2h-1v-1h-1v-3h1v-1h-1v-2h1v-4h-1v-1h-1v-2h2v-1h1v-1zM14 12h1v2h-1zM17 12h1v2h-1z"/><path fill="#54a04e" d="M14 7h4v1h1v2h1v4h-1v2h-1v-1h-1v2h-1v-1h-2v1h-1v-2h-1v1h-1v-2h-1v-4h1v-2h1v-1zM11 15h1v2h-1zM20 15h1v2h-1zM12 21h2v1h-2zM18 21h2v1h-2z"/><path fill="#e0cf8a" d="M13 13h1v1h4v-1h1v4h-1v2h-4v-2h-1v-4z"/><path fill="#d66b2f" d="M15 5h2v1h-2z"/></svg>