<svg width="32" height="32" viewBox="0 0 32 32" xmlns="http://www.w3.org/2000/svg" shape-rendering="crispEdges"><g fill="#38002c"><rect x="14" y="4" width="4" height="1"/><rect x="12" y="5" width="2" height="1"/><rect x="18" y="5" width="2" height="1"/><rect x="10" y="6" width="2" height="1"/><rect x="20" y="6" width="2" height="1"/><rect x="8" y="7" width="2" height="2"/><rect x="22" y="7" width="2" height="2"/><rect x="7" y="9" width="1" height="10"/><rect x="24" y="9" width="1" height="10"/><rect x="8" y="19" width="2" height="2"/><rect x="22" y="19" width="2" height="2"/><rect x="10" y="21" width="2" height="2"/><rect x="20" y="21" width="2" height="2"/><rect x="12" y="23" width="8" height="2"/><rect x="11" y="25" width="4" height="2"/><rect x="17" y="25" width="4" height="2"/></g><g fill="#004400"><rect x="15" y="1" width="2" height="3"/></g><g fill="#682860"><rect x="14" y="5" width="4" height="1"/><rect x="12" y="6" width="8" height="1"/><rect x="10" y="7" width="12" height="2"/><rect x="8" y="9" width="16" height="10"/><rect x="10" y="19" width="12" height="2"/><rect x="12" y="21" width="8" height="2"/></g><g fill="#904088"><rect x="14" y="6" width="2" height="1"/><rect x="11" y="7" width="2" height="1"/><rect x="16" y="7" width="2" height="1"/><rect x="20" y="7" width="1" height="1"/><rect x="9" y="9" width="2" height="2"/><rect x="13" y="9" width="2" height="2"/><rect x="18" y="9" width="2" height="2"/><rect x="22" y="9" width="1" height="2"/><rect x="9" y="13" width="1" height="2"/><rect x="13" y="13" width="2" height="2"/><rect x="18" y="13" width="2" height="2"/><rect x="22" y="13" width="1" height="2"/><rect x="11" y="17" width="2" height="2"/><rect x="15" y="17" width="2" height="2"/><rect x="19" y="17" width="2" height="2"/><rect x="10" y="19" width="1" height="1"/><rect x="21" y="19" width="1" height="1"/><rect x="13" y="20" width="2" height="1"/><rect x="17" y="20" width="2" height="1"/></g><g fill="#008800"><rect x="16" y="2" width="1" height="2"/></g></svg>