<svg width="32" height="32" viewBox="0 0 32 32" xmlns="http://www.w3.org/2000/svg" shape-rendering="crispEdges"><g fill="#38002c"><rect x="13" y="3" width="4" height="1"/><rect x="11" y="4" width="2" height="1"/><rect x="17" y="4" width="2" height="1"/><rect x="9" y="5" width="2" height="1"/><rect x="19" y="5" width="2" height="1"/><rect x="7" y="6" width="2" height="2"/><rect x="21" y="6" width="2" height="2"/><rect x="6" y="8" width="1" height="10"/><rect x="23" y="8" width="1" height="10"/><rect x="7" y="18" width="2" height="2"/><rect x="21" y="18" width="2" height="2"/><rect x="9" y="20" width="2" height="2"/><rect x="19" y="20" width="2" height="2"/><rect x="11" y="22" width="8" height="2"/><rect x="10" y="24" width="4" height="2"/><rect x="18" y="24" width="4" height="2"/></g><g fill="#004400"><rect x="14" y="0" width="2" height="3"/></g><g fill="#682860"><rect x="13" y="4" width="4" height="1"/><rect x="11" y="5" width="8" height="1"/><rect x="9" y="6" width="12" height="2"/><rect x="7" y="8" width="16" height="10"/><rect x="9" y="18" width="12" height="2"/><rect x="11" y="20" width="8" height="2"/></g><g fill="#904088"><rect x="13" y="5" width="2" height="1"/><rect x="10" y="6" width="1" height="1"/><rect x="15" y="6" width="2" height="1"/><rect x="19" y="6" width="2" height="1"/><rect x="8" y="8" width="1" height="2"/><rect x="12" y="8" width="2" height="2"/><rect x="17" y="8" width="2" height="2"/><rect x="21" y="8" width="2" height="2"/><rect x="8" y="12" width="1" height="2"/><rect x="12" y="12" width="2" height="2"/><rect x="17" y="12" width="2" height="2"/><rect x="21" y="12" width="1" height="2"/><rect x="10" y="16" width="2" height="2"/><rect x="14" y="16" width="2" height="2"/><rect x="18" y="16" width="2" height="2"/><rect x="9" y="18" width="1" height="1"/><rect x="20" y="18" width="1" height="1"/><rect x="12" y="19" width="2" height="1"/><rect x="16" y="19" width="2" height="1"/></g><g fill="#008800"><rect x="15" y="1" width="1" height="2"/></g></svg>