<svg xmlns="http://www.w3.org/2000/svg" viewBox="0 0 32 32" shape-rendering="crispEdges"><rect width="32" height="32" fill="none"/><path fill="#000000" d="M13,3 h6 v1 h1 v1 h1 v4 h1 v2 h-1 v1 h1 v1 h1 v4 h-1 v2 h-1 v3 h-1 v4 h-1 v2 h-3 v-1 h-2 v1 h-3 v-2 h-1 v-4 h-1 v-3 h-1 v-2 h-1 v-4 h1 v-1 h1 v-1 h-1 v-2 h1 v-4 h1 v-1 h1 v-1 h2 v-1 z"/><path fill="#552583" d="M13,4 h6 v1 h-6 z M13,13 h6 v1 h-6 z M11,20 h10 v4 h-10 z"/><path fill="#6E3B11" d="M13,5 h6 v4 h-6 z M10,15 h3 v5 h-3 z M19,15 h3 v5 h-3 z M13,24 h2 v3 h-2 z M17,24 h2 v3 h-2 z"/><path fill="#FDB927" d="M13,14 h6 v6 h-6 z"/><path fill="#000000" d="M13,9 h6 v4 h-6 z M14,6 h1 v1 h-1 z M17,6 h1 v1 h-1 z"/><path fill="#FFFFFF" d="M12,27 h4 v2 h-4 z M16,27 h4 v2 h-4 z"/></svg>