<svg xmlns="http://www.w3.org/2000/svg" viewBox="0 0 32 32" shape-rendering="crispEdges"><rect width="32" height="32" fill="none"/><path fill="#000000" d="M14,3 h5 v1 h1 v1 h1 v4 h-1 v1 h1 v2 h-1 v1 h1 v4 h-2 v1 h1 v2 h-1 v4 h-1 v2 h-3 v-1 h-1 v-2 h-1 v-4 h-1 v-2 h1 v-3 h-1 v-5 h-1 v-2 h1 v-6 h1 v-1 h1 v-1 z"/><path fill="#552583" d="M14,4 h5 v1 h-5 z M14,13 h2 v1 h-2 z M13,20 h6 v4 h-6 z"/><path fill="#6E3B11" d="M14,5 h5 v4 h-5 z M16,15 h3 v5 h-3 z M14,24 h3 v3 h-3 z"/><path fill="#FDB927" d="M14,13 h4 v7 h-4 z"/><path fill="#000000" d="M14,9 h5 v4 h-5 z M14,6 h1 v1 h-1 z"/><path fill="#FFFFFF" d="M13,27 h5 v2 h-5 z"/></svg>