<svg viewBox="0 0 16 16" xmlns="http://www.w3.org/2000/svg" shape-rendering="crispEdges"><style>.G{fill:#6AA84F;}.B{fill:#A6653A;}.T{fill:#D8C59A;}.O{fill:#000000;}</style><rect class="O" x="7" y="1" width="2" height="1"/><rect class="O" x="6" y="2" width="1" height="1"/><rect class="G" x="7" y="2" width="2" height="1"/><rect class="O" x="10" y="2" width="1" height="1"/><rect class="O" x="5" y="3" width="1" height="1"/><rect class="G" x="6" y="3" width="4" height="1"/><rect class="O" x="11" y="3" width="1" height="1"/><rect class="O" x="4" y="4" width="1" height="1"/><rect class="G" x="5" y="4" width="7" height="1"/><rect class="O" x="12" y="4" width="1" height="1"/><rect class="O" x="3" y="5" width="1" height="3"/><rect class="G" x="4" y="5" width="9" height="3"/><rect class="O" x="13" y="5" width="1" height="3"/><rect class="O" x="5" y="6" width="2" height="1"/><rect class="O" x="4" y="8" width="1" height="4"/><rect class="B" x="5" y="8" width="7" height="4"/><rect class="O" x="12" y="8" width="1" height="4"/><rect class="O" x="4" y="12" width="1" height="1"/><rect class="T" x="5" y="12" width="3" height="1"/><rect class="O" x="8" y="12" width="1" height="1"/><rect class="T" x="9" y="12" width="2" height="1"/><rect class="O" x="11" y="12" width="1" height="1"/><rect class="O" x="6" y="13" width="1" height="1"/><rect class="T" x="7" y="13" width="2" height="1"/><rect class="O" x="9" y="13" width="1" height="1"/><rect class="O" x="6" y="14" width="4" height="1"/><rect class="O" x="5" y="15" width="3" height="1"/></svg>