<svg xmlns="http://www.w3.org/2000/svg" width="32" height="32" viewBox="0 0 32 32" shape-rendering="crispEdges"><rect x="11" y="3" width="2" height="3" fill="#e8e1c7"/><rect x="19" y="3" width="2" height="3" fill="#e8e1c7"/><rect x="10" y="5" width="1" height="1" fill="#000000"/><rect x="13" y="5" width="1" height="1" fill="#000000"/><rect x="18" y="5" width="1" height="1" fill="#000000"/><rect x="21" y="5" width="1" height="1" fill="#000000"/><rect x="8" y="6" width="1" height="2" fill="#000000"/><rect x="9" y="6" width="1" height="1" fill="#76c442"/><rect x="22" y="6" width="1" height="1" fill="#76c442"/><rect x="23" y="6" width="1" height="2" fill="#000000"/><rect x="9" y="7" width="14" height="1" fill="#76c442"/><rect x="7" y="8" width="1" height="4" fill="#000000"/><rect x="8" y="8" width="16" height="4" fill="#76c442"/><rect x="24" y="8" width="1" height="4" fill="#000000"/><rect x="11" y="9" width="10" height="10" fill="#ffffff"/><rect x="13" y="11" width="6" height="6" fill="#3b8d99"/><rect x="6" y="12" width="1" height="6" fill="#000000"/><rect x="7" y="12" width="1" height="6" fill="#76c442"/><rect x="24" y="12" width="1" height="6" fill="#76c442"/><rect x="25" y="12" width="1" height="6" fill="#000000"/><rect x="15" y="13" width="2" height="2" fill="#000000"/><rect x="11" y="19" width="10" height="1" fill="#ffffff"/><rect x="7" y="18" width="18" height="4" fill="#76c442"/><rect x="8" y="22" width="1" height="2" fill="#000000"/><rect x="9" y="22" width="14" height="2" fill="#76c442"/><rect x="23" y="22" width="1" height="2" fill="#000000"/><rect x="10" y="24" width="1" height="1" fill="#000000"/><rect x="11" y="24" width="10" height="1" fill="#76c442"/><rect x="21" y="24" width="1" height="1" fill="#000000"/><rect x="13" y="25" width="6" height="1" fill="#000000"/><rect x="11" y="26" width="10" height="1" fill="#76c442"/><rect x="13" y="27" width="2" height="2" fill="#76c442"/><rect x="17" y="27" width="2" height="2" fill="#76c442"/><rect x="13" y="29" width="1" height="1" fill="#000000"/><rect x="15" y="29" width="1" height="1" fill="#000000"/><rect x="17" y="29" width="1" height="1" fill="#000000"/><rect x="19" y="29" width="1" height="1" fill="#000000"/><rect x="12" y="30" width="3" height="1" fill="#76c442"/><rect x="17" y="30" width="3" height="1" fill="#76c442"/><rect x="11" y="31" width="4" height="1" fill="#000000"/><rect x="17" y="31" width="4" height="1" fill="#000000"/><rect x="11" y="30" width="1" height="1" fill="#e8e1c7"/><rect x="13" y="30" width="1" height="1" fill="#e8e1c7"/><rect x="17" y="30" width="1" height="1" fill="#e8e1c7"/><rect x="19" y="30" width="1" height="1" fill="#e8e1c7"/></svg>