<svg xmlns="http://www.w3.org/2000/svg" width="32" height="32" viewBox="0 0 32 32" shape-rendering="crispEdges"><rect x="13" y="3" width="2" height="3" fill="#e8e1c7"/><rect x="12" y="5" width="1" height="1" fill="#000000"/><rect x="15" y="5" width="1" height="1" fill="#000000"/><rect x="10" y="6" width="1" height="2" fill="#000000"/><rect x="11" y="6" width="8" height="2" fill="#76c442"/><rect x="19" y="6" width="1" height="2" fill="#000000"/><rect x="9" y="8" width="1" height="4" fill="#000000"/><rect x="10" y="8" width="10" height="4" fill="#76c442"/><rect x="20" y="8" width="1" height="4" fill="#000000"/><rect x="8" y="12" width="1" height="6" fill="#000000"/><rect x="9" y="12" width="1" height="6" fill="#ffffff"/><rect x="10" y="12" width="1" height="6" fill="#3b8d99"/><rect x="11" y="12" width="10" height="6" fill="#76c442"/><rect x="21" y="12" width="1" height="6" fill="#000000"/><rect x="11" y="13" width="1" height="4" fill="#000000"/><rect x="9" y="18" width="1" height="4" fill="#000000"/><rect x="10" y="18" width="10" height="4" fill="#76c442"/><rect x="20" y="18" width="1" height="4" fill="#000000"/><rect x="10" y="22" width="1" height="2" fill="#000000"/><rect x="11" y="22" width="8" height="2" fill="#76c442"/><rect x="19" y="22" width="1" height="2" fill="#000000"/><rect x="11" y="24" width="1" height="1" fill="#000000"/><rect x="12" y="24" width="6" height="2" fill="#76c442"/><rect x="18" y="24" width="1" height="1" fill="#000000"/><rect x="12" y="26" width="1" height="1" fill="#000000"/><rect x="17" y="26" width="1" height="1" fill="#000000"/><rect x="12" y="27" width="2" height="2" fill="#76c442"/><rect x="11" y="29" width="1" height="1" fill="#000000"/><rect x="14" y="29" width="1" height="1" fill="#000000"/><rect x="11" y="30" width="3" height="1" fill="#76c442"/><rect x="10" y="31" width="4" height="1" fill="#000000"/><rect x="10" y="30" width="1" height="1" fill="#e8e1c7"/></svg>