<svg width="32" height="32" viewBox="0 0 32 32" fill="none" xmlns="http://www.w3.org/2000/svg"><rect x="8" y="4" width="16" height="16" fill="#FFFF00" stroke="#000000" stroke-width="1"/><rect x="10" y="8" width="2" height="2" fill="#000000"/><rect x="20" y="8" width="2" height="2" fill="#000000"/><rect x="15" y="12" width="2" height="4" fill="#000000"/><path d="M11 16H13V18H19V16H21V19H19V20H13V19H11V16Z" fill="#000000"/><rect x="8" y="20" width="16" height="4" fill="#FFFFFF" stroke="#000000" stroke-width="1"/><rect x="8" y="24" width="16" height="4" fill="#0000FF" stroke="#000000" stroke-width="1"/><rect x="15" y="20" width="2" height="6" fill="#FF0000" stroke="#000000" stroke-width="1"/><rect x="11" y="28" width="2" height="4" fill="#000000"/><rect x="19" y="28" width="2" height="4" fill="#000000"/><rect x="10" y="30" width="4" height="2" fill="#8B4513"/><rect x="18" y="30" width="4" height="2" fill="#8B4513"/></svg>