<svg viewBox="0 0 16 16" xmlns="http://www.w3.org/2000/svg" shape-rendering="crispEdges"><rect x="4" y="5" width="8" height="9" fill="#222222"/><rect x="5" y="6" width="6" height="7" fill="#7FC8FF"/><rect x="6" y="13" width="4" height="2" fill="#7FC8FF"/><rect x="5" y="5" width="6" height="1" fill="#7FC8FF"/><rect x="5" y="4" width="1" height="1" fill="#7FC8FF"/><rect x="10" y="4" width="1" height="1" fill="#7FC8FF"/><rect x="7" y="10" width="2" height="1" fill="#FF0000"/><rect x="6" y="11" width="4" height="1" fill="#FF8800"/><rect x="5" y="12" width="6" height="1" fill="#FFFF00"/><rect x="4" y="13" width="8" height="1" fill="#00CC00"/><rect x="5" y="14" width="6" height="1" fill="#0000FF"/><rect x="6" y="15" width="4" height="1" fill="#CC00CC"/><rect x="6" y="5" width="4" height="1" fill="#FF0000"/><rect x="5" y="6" width="1" height="1" fill="#FF8800"/><rect x="10" y="6" width="1" height="1" fill="#FF8800"/><rect x="4" y="7" width="1" height="1" fill="#FFFF00"/><rect x="11" y="7" width="1" height="1" fill="#FFFF00"/></svg>