<svg viewBox="0 0 16 16" xmlns="http://www.w3.org/2000/svg" shape-rendering="crispEdges"><rect x="3" y="6" width="10" height="8" fill="#222222"/><rect x="13" y="7" width="1" height="3" fill="#222222"/><rect x="3" y="7" width="1" height="1" fill="#222222"/><rect x="4" y="14" width="2" height="1" fill="#222222"/><rect x="8" y="14" width="2" height="1" fill="#222222"/><rect x="4" y="7" width="8" height="6" fill="#7FC8FF"/><rect x="12" y="8" width="1" height="3" fill="#7FC8FF"/><rect x="4" y="13" width="8" height="1" fill="#7FC8FF"/><rect x="10" y="8" width="1" height="1" fill="#000000"/><rect x="10" y="6" width="1" height="1" fill="#7FC8FF"/><rect x="12" y="6" width="1" height="1" fill="#FF0000"/><rect x="13" y="7" width="1" height="1" fill="#FF8800"/><rect x="13" y="8" width="1" height="1" fill="#FFFF00"/><rect x="14" y="9" width="1" height="1" fill="#00CC00"/><rect x="14" y="10" width="1" height="1" fill="#0000FF"/><rect x="13" y="11" width="1" height="1" fill="#CC00CC"/><rect x="1" y="7" width="2" height="1" fill="#FF0000"/><rect x="1" y="8" width="2" height="1" fill="#FFFF00"/><rect x="1" y="9" width="2" height="1" fill="#0000FF"/><rect x="6" y="10" width="1" height="2" fill="#FFFFFF"/><rect x="5" y="11" width="1" height="1" fill="#FFFFFF"/><rect x="7" y="11" width="1" height="1" fill="#FFDD00"/><rect x="6" y="12" width="1" height="1" fill="#FFDD00"/></svg>