<svg xmlns="http://www.w3.org/2000/svg" viewBox="0 0 32 32" shape-rendering="crispEdges"><path d="M11 2h6v1h-6zM10 3h1v1h-1zM17 3h1v1h-1zM9 4h1v1h-1zM18 4h1v1h-1zM8 5h1v4h-1zM19 5h1v4h-1zM8 9h1v1h-1zM19 9h1v1h-1zM7 10h1v2h-1zM20 10h1v2h-1zM6 12h1v4h-1zM21 12h1v4h-1zM7 16h1v2h-1zM20 16h1v2h-1zM8 18h1v3h-1zM19 18h1v3h-1zM9 21h1v1h-1zM18 21h1v1h-1zM10 22h8v1h-8zM9 23h2v1h-2zM13 23h2v1h-2zM17 23h2v1h-2zM8 24h2v2h-2zM12 24h2v2h-2zM16 24h2v2h-2zM20 24h1v1h-1zM7 25h1v1h-1zM21 25h1v2h-1zM7 26h1v2h-1zM11 26h1v2h-1zM15 26h1v2h-1zM19 26h1v2h-1zM7 28h4v1h-4zM12 28h4v1h-4zM17 28h4v1h-4z" fill="#38002C" /><path d="M11 3h6v1h-6zM10 4h8v1h-8zM9 5h10v4h-10zM9 9h10v1h-10zM8 10h12v2h-12zM7 12h14v4h-14zM8 16h12v2h-12zM9 18h10v3h-10zM10 21h8v1h-8z" fill="#D078B8" /><path d="M11 23h2v3h-2zM15 23h2v3h-2zM19 23h1v2h-1zM10 24h1v2h-1zM14 24h1v2h-1zM18 24h1v2h-1zM9 25h1v2h-1zM13 25h1v2h-1zM17 25h1v2h-1zM8 26h1v2h-1zM12 26h1v2h-1zM16 26h1v2h-1zM20 26h1v2h-1z" fill="#FFB6C1" /></svg>