<svg xmlns="http://www.w3.org/2000/svg" viewBox="0 0 32 32" shape-rendering="crispEdges"><path d="M10 2h5v1h-5zM9 3h1v1h-1zM15 3h1v1h-1zM8 4h1v1h-1zM16 4h1v1h-1zM7 5h1v4h-1zM17 5h1v4h-1zM6 9h1v2h-1zM18 9h1v2h-1zM5 11h1v5h-1zM19 11h1v5h-1zM6 16h1v2h-1zM18 16h1v2h-1zM7 18h1v3h-1zM17 18h1v3h-1zM8 21h1v1h-1zM16 21h1v1h-1zM9 22h7v1h-7zM8 23h2v1h-2zM12 23h2v1h-2zM15 23h1v1h-1zM7 24h2v2h-2zM11 24h2v2h-2zM14 24h2v2h-2zM16 24h1v2h-1zM6 25h1v3h-1zM9 26h1v2h-1zM13 26h1v2h-1zM6 28h4v1h-4zM11 28h4v1h-4z" fill="#38002C" /><path d="M10 3h5v1h-5zM9 4h7v1h-7zM8 5h9v4h-9zM7 9h1v2h-1zM17 9h1v2h-1zM6 11h1v5h-1zM18 11h1v5h-1zM7 16h1v2h-1zM17 16h1v2h-1zM8 18h9v3h-9zM9 21h7v1h-7z" fill="#D078B8" /><path d="M8 9h1v1h-1zM12 9h1v1h-1zM15 9h1v1h-1zM7 10h10v1h-10zM8 11h1v5h-1zM18 11h1v5h-1zM7 16h10v1h-10zM10 23h2v3h-2zM14 23h2v1h-2zM9 24h1v2h-1zM13 24h1v2h-1zM8 25h1v2h-1zM12 25h1v2h-1z" fill="#FFB6C1" /><path d="M9 11h1v2h-1zM15 11h1v2h-1z" fill="#000000" /><path d="M10 11h3v1h-3z" fill="#FFFFFF" /></svg>