<svg xmlns="http://www.w3.org/2000/svg" viewBox="0 0 32 32" shape-rendering="crispEdges"><path d="M17 2h5v1h-5zM16 3h1v1h-1zM22 3h1v1h-1zM15 4h1v1h-1zM23 4h1v1h-1zM14 5h1v4h-1zM24 5h1v4h-1zM13 9h1v2h-1zM25 9h1v2h-1zM12 11h1v5h-1zM26 11h1v5h-1zM13 16h1v2h-1zM25 16h1v2h-1zM14 18h1v3h-1zM24 18h1v3h-1zM15 21h1v1h-1zM23 21h1v1h-1zM16 22h7v1h-7zM16 23h1v1h-1zM18 23h2v1h-2zM22 23h2v1h-2zM16 24h2v2h-2zM19 24h2v2h-2zM23 24h2v2h-2zM15 24h1v2h-1zM25 25h1v3h-1zM18 26h1v2h-1zM22 26h1v2h-1zM17 28h4v1h-4zM22 28h4v1h-4z" fill="#38002C" /><path d="M17 3h5v1h-5zM16 4h7v1h-7zM15 5h9v4h-9zM14 9h1v2h-1zM24 9h1v2h-1zM13 11h1v5h-1zM25 11h1v5h-1zM14 16h1v2h-1zM24 16h1v2h-1zM15 18h9v3h-9zM16 21h7v1h-7z" fill="#D078B8" /><path d="M16 9h1v1h-1zM19 9h1v1h-1zM23 9h1v1h-1zM15 10h10v1h-10zM13 11h1v5h-1zM23 11h1v5h-1zM15 16h10v1h-10zM16 23h2v1h-2zM20 23h2v3h-2zM18 24h1v2h-1zM22 24h1v2h-1zM19 25h1v2h-1zM23 25h1v2h-1z" fill="#FFB6C1" /><path d="M16 11h1v2h-1zM22 11h1v2h-1z" fill="#000000" /><path d="M19 11h3v1h-3z" fill="#FFFFFF" /></svg>