<svg xmlns="http://www.w3.org/2000/svg" width="32" height="32" viewBox="0 0 32 32"><rect width="32" height="32" fill="none"/><rect x="11" y="2" width="10" height="1" fill="#000000"/><rect x="9" y="3" width="2" height="1" fill="#000000"/><rect x="11" y="3" width="10" height="1" fill="#5c8a00"/><rect x="21" y="3" width="2" height="1" fill="#000000"/><rect x="8" y="4" width="1" height="2" fill="#000000"/><rect x="9" y="4" width="14" height="2" fill="#5c8a00"/><rect x="23" y="4" width="1" height="2" fill="#000000"/><rect x="7" y="6" width="1" height="20" fill="#000000"/><rect x="8" y="6" width="16" height="5" fill="#5c8a00"/><rect x="24" y="6" width="1" height="20" fill="#000000"/><rect x="9" y="7" width="14" height="1" fill="#000000"/><rect x="9" y="8" width="5" height="1" fill="#000000"/><rect x="14" y="8" width="4" height="1" fill="#5c8a00"/><rect x="18" y="8" width="5" height="1" fill="#000000"/><rect x="9" y="9" width="1" height="3" fill="#000000"/><rect x="10" y="9" width="3" height="3" fill="#ffffff"/><rect x="13" y="9" width="1" height="3" fill="#000000"/><rect x="14" y="9" width="4" height="3" fill="#5c8a00"/><rect x="18" y="9" width="1" height="3" fill="#000000"/><rect x="19" y="9" width="3" height="3" fill="#ffffff"/><rect x="22" y="9" width="1" height="3" fill="#000000"/><rect x="11" y="10" width="1" height="1" fill="#000000"/><rect x="20" y="10" width="1" height="1" fill="#000000"/><rect x="8" y="11" width="16" height="15" fill="#5c8a00"/><rect x="9" y="12" width="5" height="1" fill="#000000"/><rect x="18" y="12" width="5" height="1" fill="#000000"/><rect x="12" y="14" width="8" height="1" fill="#000000"/><rect x="15" y="15" width="2" height="1" fill="#ffffff"/><rect x="10" y="16" width="2" height="2" fill="#2e5900"/><rect x="11" y="16" width="1" height="1" fill="#8abd00"/><rect x="20" y="18" width="2" height="2" fill="#2e5900"/><rect x="20" y="18" width="1" height="1" fill="#8abd00"/><rect x="6" y="19" width="2" height="1" fill="#665544"/><rect x="5" y="20" width="2" height="2" fill="#665544"/><rect x="24" y="19" width="2" height="1" fill="#665544"/><rect x="25" y="20" width="2" height="2" fill="#665544"/><rect x="12" y="22" width="2" height="2" fill="#2e5900"/><rect x="12" y="22" width="1" height="1" fill="#8abd00"/><rect x="8" y="26" width="1" height="2" fill="#000000"/><rect x="9" y="26" width="14" height="2" fill="#5c8a00"/><rect x="23" y="26" width="1" height="2" fill="#000000"/><rect x="9" y="28" width="2" height="1" fill="#000000"/><rect x="11" y="28" width="10" height="1" fill="#5c8a00"/><rect x="21" y="28" width="2" height="1" fill="#000000"/><rect x="11" y="29" width="10" height="1" fill="#000000"/><rect x="12" y="30" width="2" height="2" fill="#665544"/><rect x="18" y="30" width="2" height="2" fill="#665544"/></svg>