<svg xmlns="http://www.w3.org/2000/svg" width="32" height="32" viewBox="0 0 32 32"><rect width="32" height="32" fill="none"/><rect x="13" y="2" width="6" height="1" fill="#000000"/><rect x="11" y="3" width="2" height="1" fill="#000000"/><rect x="13" y="3" width="6" height="1" fill="#5c8a00"/><rect x="19" y="3" width="2" height="1" fill="#000000"/><rect x="11" y="4" width="1" height="2" fill="#000000"/><rect x="12" y="4" width="9" height="2" fill="#5c8a00"/><rect x="21" y="4" width="1" height="2" fill="#000000"/><rect x="10" y="6" width="1" height="20" fill="#000000"/><rect x="11" y="6" width="10" height="20" fill="#5c8a00"/><rect x="22" y="6" width="1" height="20" fill="#000000"/><rect x="17" y="7" width="6" height="1" fill="#000000"/><rect x="23" y="8" width="1" height="5" fill="#000000"/><rect x="20" y="8" width="3" height="1" fill="#ffffff"/><rect x="20" y="9" width="1" height="3" fill="#ffffff"/><rect x="21" y="9" width="1" height="3" fill="#000000"/><rect x="22" y="9" width="1" height="3" fill="#ffffff"/><rect x="20" y="12" width="3" height="1" fill="#ffffff"/><rect x="20" y="14" width="3" height="1" fill="#000000"/><rect x="23" y="15" width="1" height="1" fill="#ffffff"/><rect x="14" y="16" width="2" height="2" fill="#2e5900"/><rect x="15" y="16" width="1" height="1" fill="#8abd00"/><rect x="18" y="19" width="2" height="2" fill="#2e5900"/><rect x="18" y="19" width="1" height="1" fill="#8abd00"/><rect x="13" y="22" width="2" height="2" fill="#2e5900"/><rect x="14" y="22" width="1" height="1" fill="#8abd00"/><rect x="9" y="19" width="2" height="1" fill="#665544"/><rect x="10" y="20" width="1" height="2" fill="#665544"/><rect x="11" y="26" width="1" height="2" fill="#000000"/><rect x="12" y="26" width="9" height="2" fill="#5c8a00"/><rect x="21" y="26" width="1" height="2" fill="#000000"/><rect x="11" y="28" width="2" height="1" fill="#000000"/><rect x="13" y="28" width="6" height="1" fill="#5c8a00"/><rect x="19" y="28" width="2" height="1" fill="#000000"/><rect x="13" y="29" width="6" height="1" fill="#000000"/><rect x="16" y="30" width="3" height="2" fill="#665544"/></svg>